<svg width="144" height="70" viewBox="0 0 144 70" fill="none" xmlns="http://www.w3.org/2000/svg">
<g clip-path="url(#clip0_185_93)">
<path d="M28.9248 -0.090332C28.9248 -0.090332 35.6863 5.06524 46.5489 7.50517C46.5489 7.50517 48.7131 8.05657 48.8509 9.80726C48.8509 9.80726 34.17 12.5642 28.9248 -0.090332Z" fill="#394452" stroke="#394452" stroke-miterlimit="10"/>
<path d="M33.0186 10.0625C33.0186 10.0625 39.4148 12.7092 47.7478 12.337C47.7478 12.337 49.2228 12.2474 49.7259 13.6742C49.4985 13.5983 49.1607 13.5225 48.761 13.5432C47.9408 13.5846 47.3687 13.9981 47.155 14.1773C47.1481 14.1773 38.6842 19.1054 33.0186 10.0625Z" fill="#394452" stroke="#394452" stroke-miterlimit="10"/>
<path d="M38.3604 19.2363C38.3604 19.2363 46.5073 19.1467 49.4986 17.2581C49.4986 17.2581 51.0149 16.5206 51.6628 17.7613C51.3251 17.8509 50.9529 17.9681 50.5738 18.1197C49.5675 18.5263 48.7818 19.0571 48.2166 19.5257C48.0029 19.7739 46.073 21.9243 43.0059 21.7244C40.1869 21.5521 38.5947 19.5464 38.3604 19.2363Z" fill="#394452" stroke="#394452" stroke-miterlimit="10"/>
<path d="M47.1484 25.04C47.1484 25.04 50.1398 24.5851 54.1925 20.808C54.2201 20.7736 54.3993 20.5599 54.7095 20.5461C55.061 20.5254 55.2747 20.7805 55.2953 20.808C55.1988 20.8632 55.1092 20.9321 55.0127 21.001C54.1719 21.6351 53.7376 22.4898 53.4964 23.1584C53.4964 23.1515 50.9255 28.5345 47.1484 25.04Z" fill="#394452" stroke="#394452" stroke-miterlimit="10"/>
<path d="M116.555 -0.090332C116.555 -0.090332 109.794 5.06524 98.931 7.50517C98.931 7.50517 96.7668 8.05657 96.6289 9.80726C96.6289 9.80726 111.31 12.5642 116.555 -0.090332Z" fill="#394452" stroke="#394452" stroke-miterlimit="10"/>
<path d="M112.461 10.0625C112.461 10.0625 106.065 12.7092 97.732 12.337C97.732 12.337 96.2571 12.2474 95.7539 13.6742C95.9814 13.5983 96.3191 13.5225 96.7189 13.5432C97.5391 13.5846 98.1111 13.9981 98.3248 14.1773C98.3317 14.1773 106.803 19.1054 112.461 10.0625Z" fill="#394452" stroke="#394452" stroke-miterlimit="10"/>
<path d="M107.12 19.2363C107.12 19.2363 98.973 19.1467 95.9816 17.2581C95.9816 17.2581 94.4653 16.5206 93.8174 17.7613C94.1551 17.8509 94.5273 17.9681 94.9064 18.1197C95.9127 18.5263 96.6984 19.0571 97.2636 19.5257C97.4773 19.7739 99.4072 21.9243 102.474 21.7244C105.3 21.5521 106.892 19.5464 107.12 19.2363Z" fill="#394452" stroke="#394452" stroke-miterlimit="10"/>
<path d="M98.3315 25.04C98.3315 25.04 95.3401 24.5851 91.2874 20.808C91.2598 20.7736 91.0806 20.5599 90.7704 20.5461C90.4189 20.5254 90.2052 20.7805 90.1846 20.808C90.2811 20.8632 90.3707 20.9321 90.4672 21.001C91.308 21.6351 91.7423 22.4898 91.9835 23.1584C91.9835 23.1515 94.5613 28.5345 98.3315 25.04Z" fill="#394452" stroke="#394452" stroke-miterlimit="10"/>
<path d="M92.6522 15.8798C92.5144 16.2107 92.3628 16.5553 92.1904 16.9068C91.9768 17.3479 91.7493 17.7615 91.5288 18.1337C91.2462 18.3336 90.8602 18.6162 90.4191 18.9884C90.0538 19.2985 89.7712 19.5329 89.4955 19.843C89.2474 20.1187 88.6064 20.8217 88.372 21.8005C88.3238 21.9935 88.2135 22.5173 88.4823 23.9165C88.627 24.6746 88.8889 25.7154 89.3921 26.9216C89.3921 26.9216 90.8188 30.4643 85.939 31.8428C85.939 31.8428 77.606 33.2213 75.1729 36.764C75.1729 36.764 73.2568 39.204 72.8364 41.8024C72.795 42.0437 72.7675 42.2918 72.7606 42.533C72.7606 42.5606 72.7537 42.5882 72.7537 42.6157C72.7537 42.5882 72.7468 42.5606 72.7468 42.533C72.7399 42.2849 72.7123 42.0437 72.671 41.8024C72.2367 39.2109 70.3206 36.7709 70.3206 36.7709C67.8807 33.2282 59.5546 31.8497 59.5546 31.8497C54.6747 30.4712 56.1015 26.9285 56.1015 26.9285C56.6046 25.7223 56.8665 24.6815 57.0113 23.9234C57.2732 22.5242 57.1698 22.0004 57.1215 21.8074C56.8803 20.8286 56.2462 20.1256 55.9981 19.8499C55.7224 19.5397 55.4467 19.3054 55.0745 18.9952C54.6334 18.623 54.2474 18.3405 53.9648 18.1406C53.7442 17.7684 53.5168 17.3548 53.2962 16.9137C53.1239 16.5553 52.9723 16.2176 52.8344 15.8867C50.2566 13.8397 50.4427 10.7656 50.6633 9.44228C50.7322 9.04251 50.808 8.80128 50.808 8.80128C50.8287 10.0557 51.0631 12.7369 52.9998 14.9011C53.3651 15.3078 53.7442 15.6455 54.1233 15.935L58.7688 18.7471C61.4845 20.1739 62.1393 22.9308 62.1393 22.9308C62.4701 23.8406 62.8561 25.2536 62.8078 26.9974C62.7803 27.9968 62.6148 28.8515 62.4287 29.52C62.2909 28.8722 62.1599 28.2105 62.0428 27.535C61.9601 27.0939 61.8842 26.6597 61.8153 26.2323C60.8021 22.0762 57.7212 20.7735 57.7212 20.7735C57.7832 21.1733 57.8246 21.6144 57.8315 22.09C57.8384 23.0687 57.6454 23.6959 57.094 25.867C56.646 27.6453 56.5426 28.1002 56.7838 28.6792C57.0526 29.3408 57.604 29.7751 57.6798 29.8302C58.1692 30.2093 58.6586 30.3334 58.9136 30.3816C59.5615 30.6091 64.1174 30.7193 64.1174 30.7193C72.0782 32.0978 72.7468 37.8324 72.7468 37.8324C72.7468 37.8324 72.7468 37.8324 72.7468 37.8393C72.7468 37.8393 72.7468 37.8393 72.7468 37.8324C72.7468 37.8324 73.4222 32.0909 81.3762 30.7193C81.3762 30.7193 85.9321 30.6091 86.5731 30.3816C86.8281 30.3334 87.3175 30.2024 87.8137 29.8302C87.8826 29.7751 88.4409 29.3408 88.7097 28.6792C88.9441 28.1002 88.8407 27.6453 88.3927 25.867C87.8413 23.6959 87.6552 23.0687 87.6621 22.09C87.669 21.6144 87.7103 21.1733 87.7724 20.7735C87.7724 20.7735 84.6914 22.0693 83.6782 26.2323C83.6093 26.6597 83.5335 27.0939 83.4508 27.535C83.3267 28.2105 83.1958 28.879 83.0648 29.52C82.8787 28.8446 82.7133 27.9899 82.6857 26.9974C82.6306 25.2536 83.0166 23.8406 83.3543 22.9308C83.3543 22.9308 84.0022 20.167 86.7247 18.7471L91.3702 15.935C91.7424 15.6524 92.1284 15.3147 92.4937 14.9011C94.4305 12.7369 94.6648 10.0557 94.6855 8.80128C94.6717 8.79439 96.0089 13.2125 92.6522 15.8798Z" fill="#394452" stroke="#394452" stroke-miterlimit="10"/>
<path d="M81.6042 34.2895L80.7219 38.7628C80.653 39.1143 80.5014 39.645 80.1085 40.1757C79.2332 41.3612 77.8822 41.5749 77.5721 41.6094C77.2137 41.7058 76.4486 41.9678 75.7525 42.6501C75.0701 43.3256 74.7944 44.0631 74.691 44.4146C74.6083 44.6834 74.5187 44.9591 74.436 45.2279L72.7474 45.9999L71.0587 45.2279C70.976 44.9591 70.8864 44.6834 70.8037 44.4146C70.6934 44.0562 70.4246 43.3187 69.7422 42.6501C69.0461 41.9609 68.281 41.7058 67.9226 41.6094C67.6194 41.568 66.2615 41.3612 65.3862 40.1757C65.0002 39.645 64.8417 39.1143 64.7728 38.7628L63.8905 34.2895C63.8561 34.1793 63.9181 34.069 64.0077 34.0483C64.0766 34.0345 64.1593 34.069 64.2007 34.1379L65.1656 37.7565C65.4069 38.4044 66.1168 40.0861 67.5987 40.4859C67.709 40.5134 67.8261 40.541 67.9433 40.5479C68.4396 40.5548 69.563 40.6513 70.6245 41.4164C71.0863 41.7541 71.4102 42.1263 71.6308 42.4296C71.8169 42.7328 72.0167 43.0981 72.2028 43.5117C72.3476 43.8425 72.5061 44.0148 72.6164 44.3663C72.6577 44.4973 72.837 44.4973 72.8783 44.3663C72.9886 44.0148 73.1471 43.8356 73.2919 43.5117C73.478 43.0981 73.6709 42.7328 73.8639 42.4296C74.0845 42.1263 74.4084 41.7541 74.8702 41.4164C75.9317 40.6513 77.0551 40.5548 77.5514 40.5479C77.6755 40.5341 77.7926 40.5134 77.896 40.4859C79.3779 40.0861 80.0878 38.4044 80.3291 37.7565L81.294 34.1379C81.3354 34.069 81.4181 34.0276 81.487 34.0483C81.5766 34.069 81.6386 34.1862 81.6042 34.2895Z" fill="#394452" stroke="#394452" stroke-miterlimit="10"/>
<path d="M30.1645 1.35622C30.9644 1.86458 32.0632 2.51995 33.4317 3.23553C36.5079 4.84408 40.9516 6.75926 46.4294 7.99079L46.4379 7.99313C46.4496 7.99643 46.4685 8.0019 46.4936 8.00971C46.5438 8.02534 46.6184 8.05015 46.7093 8.08522C46.8926 8.15587 47.1355 8.26547 47.379 8.42105C47.7504 8.65836 48.083 8.97434 48.248 9.39224C48.2163 9.39633 48.1832 9.40051 48.1488 9.40475C47.7487 9.45399 47.1683 9.511 46.4543 9.54074C45.0246 9.60029 43.0683 9.55011 40.9558 9.11424C37.1376 8.32642 32.8308 6.2874 30.1645 1.35622Z" fill="#394452" stroke="#394452"/>
<path d="M34.3139 11.0501C35.0321 11.2796 35.9908 11.5574 37.1448 11.8263C39.8175 12.4489 43.5467 13.0252 47.7701 12.8365L47.7701 12.8366L47.7751 12.8363L47.7753 12.8363L47.7785 12.8362C47.7838 12.836 47.7938 12.8358 47.8081 12.8359C47.8367 12.8362 47.8817 12.8376 47.9388 12.8431C48.0541 12.854 48.2112 12.8804 48.3783 12.9408C48.4576 12.9695 48.5393 13.0056 48.6201 13.0518C47.753 13.1277 47.1402 13.5457 46.8731 13.7618C46.8598 13.769 46.843 13.7781 46.8227 13.7889C46.7642 13.82 46.6761 13.8655 46.5611 13.9209C46.3307 14.0318 45.9929 14.1822 45.5693 14.3361C44.7202 14.6445 43.5372 14.9629 42.1908 15.0113C39.8081 15.0971 36.8649 14.343 34.3139 11.0501Z" fill="#394452" stroke="#394452"/>
<path d="M50.3695 17.5434C50.4672 17.5372 50.5608 17.5409 50.6483 17.5559C50.5622 17.5874 50.4754 17.6205 50.3881 17.6554L50.3865 17.6561C49.324 18.0854 48.4946 18.6457 47.8974 19.1409L47.8651 19.1677L47.8377 19.1995C47.6431 19.4255 45.8547 21.409 43.0384 21.2255L43.0364 21.2254C41.383 21.1243 40.1847 20.3341 39.4786 19.7023C39.5507 19.6992 39.6257 19.6958 39.7034 19.6922C40.5208 19.654 41.6431 19.5831 42.861 19.4525C44.0776 19.3221 45.3979 19.1312 46.6089 18.8511C47.796 18.5765 48.9186 18.2073 49.7358 17.6995C49.7416 17.697 49.7486 17.694 49.7568 17.6906C49.7893 17.6771 49.8388 17.6578 49.9009 17.6376C50.0275 17.5962 50.1942 17.5546 50.3695 17.5434ZM49.7154 17.7087C49.7151 17.7088 49.7152 17.7088 49.7156 17.7086L49.7154 17.7087Z" fill="#394452" stroke="#394452"/>
<path d="M53.4552 23.2386C53.4294 23.2881 53.3915 23.3587 53.342 23.4456C53.2131 23.3958 53.0875 23.3071 52.9964 23.1584L53.4552 23.2386ZM53.037 22.9587L53.0225 22.9871C53.0047 23.0214 52.9777 23.0727 52.9416 23.1376C52.8692 23.2677 52.7611 23.4518 52.6199 23.6631C52.335 24.0895 51.9276 24.6084 51.4231 25.0194C50.9186 25.4302 50.3483 25.7087 49.7253 25.7193C49.2949 25.7267 48.7973 25.6068 48.2366 25.255C48.5492 25.1459 48.9275 24.9965 49.3623 24.7934C50.415 24.3018 51.7966 23.4966 53.3786 22.1889C53.2347 22.4593 53.1238 22.7215 53.037 22.9587Z" fill="#394452" stroke="#394452"/>
<path d="M97.3311 9.40475C97.2966 9.40051 97.2635 9.39633 97.2318 9.39224C97.3968 8.97434 97.7294 8.65836 98.1008 8.42105C98.3444 8.26547 98.5872 8.15587 98.7705 8.08522C98.8615 8.05015 98.936 8.02534 98.9863 8.00971C99.0114 8.0019 99.0303 7.99643 99.042 7.99313L99.0505 7.99079C104.528 6.75926 108.972 4.84408 112.048 3.23553C113.417 2.51996 114.515 1.86459 115.315 1.35622C112.649 6.28741 108.342 8.32642 104.524 9.11424C102.412 9.55011 100.455 9.60029 99.0256 9.54074C98.3116 9.511 97.7311 9.45399 97.3311 9.40475Z" fill="#394452" stroke="#394452"/>
<path d="M97.7031 12.8362L97.7097 12.8365C101.933 13.0252 105.662 12.4489 108.335 11.8263C109.49 11.5573 110.449 11.2793 111.167 11.0497C108.619 14.3429 105.675 15.0971 103.292 15.0113C101.945 14.9629 100.761 14.6445 99.9114 14.336C99.4875 14.1822 99.1494 14.0318 98.9189 13.9208C98.8037 13.8654 98.7156 13.8199 98.6571 13.7889C98.6367 13.7781 98.6199 13.769 98.6067 13.7617C98.3395 13.5456 97.7268 13.1277 96.8597 13.0518C96.9405 13.0056 97.0222 12.9695 97.1015 12.9408C97.2686 12.8804 97.4257 12.854 97.541 12.8431C97.5981 12.8376 97.6431 12.8362 97.6718 12.8359C97.686 12.8358 97.6961 12.836 97.7013 12.8362L97.7031 12.8362Z" fill="#394452" stroke="#394452"/>
<path d="M95.0921 17.6554C95.0048 17.6205 94.918 17.5874 94.8319 17.5559C94.9194 17.5409 95.013 17.5372 95.1107 17.5434C95.286 17.5546 95.4527 17.5962 95.5793 17.6376C95.6414 17.6578 95.6909 17.6771 95.7234 17.6906C95.7316 17.694 95.7386 17.697 95.7444 17.6995C96.5616 18.2073 97.6842 18.5765 98.8713 18.8511C100.082 19.1312 101.403 19.3221 102.619 19.4525C103.837 19.5831 104.959 19.654 105.777 19.6922C105.856 19.6959 105.933 19.6993 106.006 19.7025C105.303 20.3329 104.102 21.1242 102.444 21.2254L102.442 21.2255C99.6255 21.409 97.8371 19.4255 97.6425 19.1995L97.6151 19.1677L97.5828 19.1409C96.9856 18.6457 96.1562 18.0854 95.0937 17.6561L95.0937 17.6561L95.0921 17.6554Z" fill="#394452" stroke="#394452"/>
<path d="M92.0248 23.2386C92.0507 23.2881 92.0887 23.3587 92.1383 23.4456C92.2671 23.3957 92.3926 23.307 92.4835 23.1584L92.0248 23.2386ZM92.4573 22.9866L92.4428 22.9584C92.356 22.7213 92.2451 22.4592 92.1013 22.1889C93.6833 23.4966 95.0649 24.3018 96.1176 24.7934C96.5528 24.9967 96.9314 25.1462 97.2441 25.2553C96.6844 25.6069 96.1876 25.7267 95.7576 25.7193C95.1349 25.7087 94.5642 25.4302 94.0593 25.0192C93.5543 24.6082 93.1461 24.0892 92.8607 23.6628C92.7193 23.4515 92.6109 23.2673 92.5384 23.1372C92.5022 23.0723 92.4751 23.021 92.4573 22.9866Z" fill="#394452" stroke="#394452"/>
<path d="M94.4357 10.9947C94.1671 12.2181 93.6165 13.6465 92.4937 14.9011C92.1284 15.3147 91.7424 15.6524 91.3702 15.935L94.4357 10.9947ZM94.4357 10.9947C94.4338 11.0968 94.4298 11.2012 94.4234 11.3075C94.3496 12.5257 93.9595 13.9643 92.7518 15.1291M91.6726 16.3332C91.794 16.2411 91.9172 16.143 92.0411 16.0384C91.9479 16.2515 91.8487 16.4681 91.7415 16.6867L91.7405 16.6889C91.551 17.08 91.3498 17.4499 91.152 17.788C90.8722 17.9881 90.5078 18.2593 90.0966 18.6062L90.0955 18.6072C90.0699 18.6289 90.0446 18.6503 90.0195 18.6716C89.6941 18.9475 89.4048 19.1927 89.1231 19.5094C89.1227 19.5099 89.1222 19.5103 89.1218 19.5108L89.1082 19.5258C88.9416 19.7108 88.5965 20.0937 88.3006 20.6301L88.4037 19.9655L87.5785 20.3126L87.7724 20.7735C87.5785 20.3126 87.5783 20.3127 87.578 20.3128L87.5775 20.3131L87.5761 20.3136L87.5725 20.3152L87.5621 20.3197C87.5537 20.3234 87.5424 20.3285 87.5284 20.3349C87.5003 20.3479 87.4612 20.3664 87.4125 20.391C87.3152 20.4402 87.1789 20.5137 87.0141 20.6146C86.6847 20.8163 86.2396 21.1286 85.7625 21.5777C84.8083 22.4761 83.7303 23.9182 83.1962 26.0986C83.2666 24.8414 83.5599 23.8137 83.823 23.1048L83.8339 23.0755L83.8408 23.0461L83.8408 23.046L83.8409 23.0456L83.841 23.0453L83.8411 23.045L83.8415 23.0433L83.8458 23.0265C83.8501 23.0104 83.8571 22.9847 83.8671 22.9503C83.8874 22.8816 83.9199 22.7786 83.9674 22.6491C84.0626 22.3898 84.2171 22.0268 84.4514 21.6218C84.9205 20.8107 85.701 19.8449 86.9559 19.1904L86.97 19.1831L86.9836 19.1748L91.6292 16.3627L91.6517 16.3491L91.6726 16.3332ZM86.699 30.8665C86.9708 30.8121 87.4292 30.6839 87.915 30.3689C87.4368 30.7415 86.7665 31.0867 85.8285 31.3544L85.7572 31.3669C85.6935 31.3782 85.6006 31.3952 85.482 31.4179C85.2448 31.4634 84.9045 31.5322 84.489 31.6258C83.6589 31.8128 82.5249 32.0999 81.3117 32.5001C80.1004 32.8996 78.7985 33.4157 77.6377 34.064C76.4878 34.7063 75.4397 35.4984 74.7691 36.4688L74.754 36.4885C74.7384 36.5089 74.7162 36.5383 74.6881 36.5762C74.6319 36.652 74.5522 36.762 74.4557 36.9015C74.2629 37.1804 74.0021 37.5791 73.7277 38.0616C73.3928 38.6505 73.031 39.3759 72.7498 40.1688C72.466 39.3783 72.1028 38.6546 71.7672 38.0669C71.492 37.585 71.2308 37.1867 71.0379 36.908C70.9413 36.7686 70.8616 36.6587 70.8054 36.583C70.7773 36.5451 70.7551 36.5157 70.7395 36.4954L70.7242 36.4754C70.052 35.5053 69.0032 34.7132 67.8528 34.0708C66.6919 33.4226 65.3902 32.9065 64.1793 32.507C62.9666 32.1068 61.8332 31.8197 61.0036 31.6327C60.5885 31.5391 60.2484 31.4703 60.0114 31.4248C59.8928 31.4021 59.8 31.3851 59.7363 31.3738L59.6651 31.3613C58.707 31.0878 58.0283 30.7336 57.5482 30.3519C58.043 30.6865 58.5162 30.8127 58.7885 30.8667C58.9197 30.9069 59.0903 30.9349 59.2574 30.9571C59.4558 30.9834 59.6962 31.0072 59.9593 31.0287C60.4863 31.0717 61.1233 31.1071 61.7355 31.1352C62.3486 31.1634 62.9409 31.1844 63.3795 31.1983C63.599 31.2053 63.7802 31.2105 63.9066 31.214L64.0532 31.2179L64.0679 31.2183C67.8993 31.8901 69.9315 33.5925 71.0123 35.0859C71.5587 35.8409 71.8698 36.5535 72.0438 37.0734C72.1307 37.3332 72.1831 37.5442 72.2134 37.687C72.2285 37.7584 72.2381 37.8127 72.2437 37.8474C72.2446 37.8525 72.2453 37.8572 72.246 37.8615C72.2475 37.8717 72.2486 37.8793 72.2493 37.8844L72.2501 37.8903L72.2502 37.8909C72.2502 37.8908 72.2502 37.8907 72.2568 37.8899L72.912 37.8518C73.2433 37.8909 73.2433 37.8911 73.2433 37.8914L73.2442 37.8849C73.2452 37.8776 73.247 37.8652 73.2498 37.8478C73.2555 37.813 73.2651 37.7586 73.2804 37.6871C73.3108 37.5441 73.3635 37.3329 73.4507 37.0727C73.6252 36.5522 73.9369 35.8388 74.4838 35.0834C75.5655 33.589 77.5977 31.8867 81.4254 31.2183L81.4403 31.2179L81.5869 31.214C81.7133 31.2105 81.8945 31.2053 82.1139 31.1983C82.5525 31.1844 83.1445 31.1634 83.7572 31.1352C84.3689 31.1071 85.0054 31.0717 85.5314 31.0287C85.7941 31.0072 86.034 30.9834 86.2318 30.957C86.3977 30.9349 86.568 30.907 86.699 30.8665ZM57.0895 19.9636L57.1956 20.6474C56.8948 20.0987 56.5439 19.7089 56.3778 19.5244L56.3718 19.5177C56.3714 19.5173 56.3711 19.517 56.3708 19.5166C56.068 19.1761 55.7661 18.9207 55.3958 18.6122C54.9851 18.2657 54.6211 17.9948 54.3415 17.7949C54.1442 17.4575 53.9419 17.0868 53.7452 16.6936C53.6339 16.4621 53.5317 16.2399 53.4365 16.023C53.5642 16.1319 53.6921 16.2348 53.8199 16.3324L53.8413 16.3487L53.8644 16.3627L58.5099 19.1748L58.5229 19.1827L58.5363 19.1897C59.7887 19.8477 60.5697 20.8141 61.0399 21.6248C61.2747 22.0297 61.4298 22.3923 61.5256 22.6512C61.5734 22.7804 61.6061 22.8833 61.6265 22.9519C61.6367 22.9862 61.6437 23.0119 61.648 23.0279L61.6524 23.0447L61.6528 23.0464L61.6529 23.0467L61.653 23.047L61.653 23.0474L61.6531 23.0475L61.6595 23.0745L61.6694 23.1017C61.9267 23.8093 62.2178 24.832 62.2933 26.0821C61.7578 23.9142 60.6828 22.4772 59.7312 21.5805C59.2543 21.131 58.8093 20.8181 58.48 20.6159C58.3153 20.5147 58.1791 20.4411 58.0817 20.3917C58.0331 20.367 57.9941 20.3483 57.966 20.3354C57.9597 20.3324 57.9539 20.3298 57.9487 20.3275C57.9424 20.3246 57.9369 20.3221 57.9323 20.3201L57.9219 20.3155L57.9183 20.314L57.917 20.3134L57.9164 20.3132C57.9162 20.3131 57.9159 20.313 57.7212 20.7735L57.9159 20.313L57.0895 19.9636Z" fill="#394452" stroke="#394452"/>
<path d="M73.2919 43.5117L73.7478 43.7169C73.9237 43.3259 74.1028 42.9873 74.2774 42.7112C74.4749 42.4416 74.7607 42.1162 75.164 41.821C76.1062 41.1425 77.1099 41.0541 77.5583 41.0479L77.5826 41.0475L77.6066 41.0449C77.7496 41.029 77.8922 41.0044 78.0249 40.969L78.0263 40.9686C78.7927 40.7619 79.3677 40.2775 79.7864 39.7648C79.7612 39.8026 79.7346 39.8404 79.7066 39.8782L79.7063 39.8787C78.9589 40.8909 77.7888 41.0822 77.5169 41.1124L77.4789 41.1166L77.4421 41.1265C77.0391 41.2351 76.1831 41.5279 75.4025 42.293L75.4007 42.2948C74.6392 43.0486 74.3301 43.8709 74.2123 44.2704C74.1719 44.4017 74.1297 44.5349 74.0868 44.6704L74.0865 44.6714C74.0661 44.7359 74.0455 44.8009 74.025 44.866L72.7473 45.4501L71.4697 44.866C71.4492 44.8009 71.4286 44.7359 71.4082 44.6714L71.4079 44.6704C71.3647 44.5339 71.3222 44.3997 71.2816 44.2675C71.16 43.8725 70.8596 43.0454 70.0931 42.2939C69.3107 41.5197 68.4526 41.2342 68.0526 41.1265L68.0218 41.1182L67.9902 41.1139C67.7075 41.0754 66.5357 40.8894 65.7895 39.8802C65.7638 39.8448 65.7393 39.8094 65.7159 39.7741C66.1339 40.2833 66.7066 40.7631 67.4684 40.9686L67.4684 40.9687L67.4774 40.971C67.5865 40.9982 67.7448 41.0371 67.9139 41.047L67.9251 41.0477L67.9364 41.0479C68.3848 41.0541 69.3885 41.1425 70.3307 41.821C70.7324 42.115 71.0175 42.439 71.215 42.708C71.3879 42.9912 71.5732 43.3311 71.7459 43.7147C71.816 43.8745 71.8917 44.0081 71.9513 44.1134C71.9635 44.135 71.9751 44.1554 71.9857 44.1746C72.0502 44.2903 72.0989 44.3873 72.1393 44.516L72.1396 44.5169C72.3281 45.1138 73.1666 45.1138 73.3551 44.5169L73.3554 44.516C73.3961 44.3861 73.4455 44.2867 73.5097 44.1707C73.5215 44.1494 73.5344 44.1265 73.5481 44.1021C73.6067 43.9983 73.6805 43.8675 73.7484 43.7156L73.2919 43.5117ZM73.2919 43.5117C73.2345 43.64 73.175 43.7456 73.1172 43.8482C73.085 43.9055 73.0532 43.9618 73.0227 44.0206L74.8702 41.4164C74.4084 41.7541 74.0845 42.1263 73.8639 42.4296C73.6709 42.7328 73.478 43.0981 73.2919 43.5117Z" fill="#394452" stroke="#394452"/>
<path d="M8.93003 65.7473V69.4994H7.40137V59.7632H11.6197C12.4649 59.7632 13.0897 59.8596 13.5334 60.0275C13.9376 60.1804 14.2983 60.4822 14.6065 60.9507C14.9021 61.4 15.0469 61.9105 15.0469 62.4699C15.0469 63.0293 14.9128 63.4831 14.6656 63.851C14.4175 64.2203 14.0331 64.5363 13.4796 64.7816L13.0325 64.9797L13.2206 65.431L14.9099 69.4853H13.219L11.6901 65.552L11.5662 65.2332H11.2241H9.43003H8.93003V65.7332V65.7473ZM9.43003 60.6703H8.93003V61.1703V63.9108V64.4108H9.43003H10.9698C11.4932 64.4108 11.9214 64.3686 12.2208 64.2751C12.5617 64.1686 12.8581 63.9421 13.0822 63.6277C13.3366 63.2913 13.4476 62.9012 13.4476 62.4982C13.4476 62.0979 13.3303 61.7214 13.0763 61.3892C12.8535 61.0979 12.5848 60.8669 12.2288 60.7719C11.9452 60.6963 11.4874 60.6703 10.9133 60.6703H9.43003Z" fill="#394452" stroke="#394452"/>
<path d="M29.7014 68.3667H34.3153V69.4857H27.6445V59.7495H34.3153V60.7979H29.7014H29.2014V61.2979V63.5016V64.0016H29.7014H33.2275V65.0217H29.7014H29.2014V65.5217V67.8667V68.3667H29.7014Z" fill="#394452" stroke="#394452"/>
<path d="M48.5472 68.3804H52.3134V69.4994H46.4902V59.7632H48.033V67.8804V68.3804H48.533H48.5472Z" fill="#394452" stroke="#394452"/>
<path d="M69.6726 59.7632L66.6975 65.2402L66.6369 65.3519V65.4789V69.4994H65.1224V65.4789V65.3519L65.0617 65.2402L62.0867 59.7632H63.8622L65.7721 63.5565L66.2202 64.4466L66.6659 63.5553L68.5619 59.7632H69.6726Z" fill="#394452" stroke="#394452"/>
<path d="M87.1096 65.8378L88.9788 59.7632H92.0367V69.4994H90.508V61.2409L89.5302 61.0937L86.9407 69.4994H85.9714L83.4232 61.0958L82.4447 61.2409V69.4994H81.3398V59.7632H84.3781L86.1518 65.8311L86.6195 67.4309L87.1096 65.8378Z" fill="#394452" stroke="#394452"/>
<path d="M106.917 68.3667H111.531V69.4857H104.86V59.7495H111.531V60.7979H106.917H106.417V61.2979V63.5016V64.0016H106.917H110.443V65.0217H106.917H106.417V65.5217V67.8667V68.3667H106.917Z" fill="#394452" stroke="#394452"/>
<path d="M125.248 65.7473V69.4994H123.72V59.7632H127.938C128.783 59.7632 129.408 59.8596 129.852 60.0275C130.256 60.1804 130.617 60.4822 130.925 60.9507C131.22 61.4 131.365 61.9105 131.365 62.4699C131.365 63.0293 131.231 63.4831 130.984 63.851C130.736 64.2203 130.351 64.5363 129.798 64.7816L129.351 64.9797L129.539 65.431L131.228 69.4853H129.537L128.008 65.552L127.885 65.2332H127.542H125.748H125.248V65.7332V65.7473ZM125.748 60.6703H125.248V61.1703V63.9108V64.4108H125.748H127.288C127.812 64.4108 128.24 64.3686 128.539 64.2751C128.88 64.1686 129.176 63.9421 129.401 63.6277C129.655 63.2913 129.766 62.9012 129.766 62.4982C129.766 62.0979 129.649 61.7214 129.395 61.3892C129.172 61.0979 128.903 60.8669 128.547 60.7719C128.264 60.6963 127.806 60.6703 127.232 60.6703H125.748Z" fill="#394452" stroke="#394452"/>
</g>
<defs>
<clipPath id="clip0_185_93">
<rect width="144" height="70" fill="white"/>
</clipPath>
</defs>
</svg>
